<svg xmlns="http://www.w3.org/2000/svg" version="1.1" width="400" height="225" viewBox="0 0 400 225"><defs><clipPath id="clip-1"><rect x="5" y="5" width="390" height="215" transform="rotate(-180 274.5 175)"/></clipPath></defs><path fill="none" stroke="#1fab54" d="M 200,125 L 125,93.75 L 125,175" style="stroke-width: 2px" stroke-width="2" stroke-dasharray="6,2"/><path fill="none" stroke="#1fab54" d="M 200,125 L 225,143.75 L 225,175" style="stroke-width: 2px" stroke-width="2" stroke-dasharray="6,2"/><path fill="none" stroke="#1fab54" d="M 200,125 L 300,50 L 300,175" style="stroke-width: 2px" stroke-width="2" stroke-dasharray="6,2"/><path fill="none" stroke="#11accd" d="M 0,-250 L 0.5,-248.003 L 1,-246.01 L 1.5,-244.023 L 2,-242.04 L 2.5,-240.063 L 3,-238.09 L 3.5,-236.123 L 4,-234.16 L 4.5,-232.203 L 5,-230.25 L 5.5,-228.303 L 6,-226.36 L 6.5,-224.423 L 7,-222.49 L 7.5,-220.563 L 8,-218.64 L 8.5,-216.723 L 9,-214.81 L 9.5,-212.903 L 10,-211 L 10.5,-209.103 L 11,-207.21 L 11.5,-205.323 L 12,-203.44 L 12.5,-201.563 L 13,-199.69 L 13.5,-197.823 L 14,-195.96 L 14.5,-194.103 L 15,-192.25 L 15.5,-190.403 L 16,-188.56 L 16.5,-186.723 L 17,-184.89 L 17.5,-183.063 L 18,-181.24 L 18.5,-179.423 L 19,-177.61 L 19.5,-175.803 L 20,-174 L 20.5,-172.203 L 21,-170.41 L 21.5,-168.623 L 22,-166.84 L 22.5,-165.063 L 23,-163.29 L 23.5,-161.523 L 24,-159.76 L 24.5,-158.003 L 25,-156.25 L 25.5,-154.503 L 26,-152.76 L 26.5,-151.023 L 27,-149.29 L 27.5,-147.563 L 28,-145.84 L 28.5,-144.123 L 29,-142.41 L 29.5,-140.703 L 30,-139 L 30.5,-137.303 L 31,-135.61 L 31.5,-133.923 L 32,-132.24 L 32.5,-130.563 L 33,-128.89 L 33.5,-127.223 L 34,-125.56 L 34.5,-123.903 L 35,-122.25 L 35.5,-120.603 L 36,-118.96 L 36.5,-117.323 L 37,-115.69 L 37.5,-114.063 L 38,-112.44 L 38.5,-110.823 L 39,-109.21 L 39.5,-107.603 L 40,-106 L 40.5,-104.403 L 41,-102.81 L 41.5,-101.223 L 42,-99.64 L 42.5,-98.0625 L 43,-96.49 L 43.5,-94.9225 L 44,-93.36 L 44.5,-91.8025 L 45,-90.25 L 45.5,-88.7025 L 46,-87.16 L 46.5,-85.6225 L 47,-84.09 L 47.5,-82.5625 L 48,-81.04 L 48.5,-79.5225 L 49,-78.01 L 49.5,-76.5025 L 50,-75 L 50.5,-73.5025 L 51,-72.01 L 51.5,-70.5225 L 52,-69.04 L 52.5,-67.5625 L 53,-66.09 L 53.5,-64.6225 L 54,-63.16 L 54.5,-61.7025 L 55,-60.25 L 55.5,-58.8025 L 56,-57.36 L 56.5,-55.9225 L 57,-54.49 L 57.5,-53.0625 L 58,-51.64 L 58.5,-50.2225 L 59,-48.81 L 59.5,-47.4025 L 60,-46 L 60.5,-44.6025 L 61,-43.21 L 61.5,-41.8225 L 62,-40.44 L 62.5,-39.0625 L 63,-37.69 L 63.5,-36.3225 L 64,-34.96 L 64.5,-33.6025 L 65,-32.25 L 65.5,-30.9025 L 66,-29.56 L 66.5,-28.2225 L 67,-26.89 L 67.5,-25.5625 L 68,-24.24 L 68.5,-22.9225 L 69,-21.61 L 69.5,-20.3025 L 70,-19 L 70.5,-17.7025 L 71,-16.41 L 71.5,-15.1225 L 72,-13.84 L 72.5,-12.5625 L 73,-11.29 L 73.5,-10.0225 L 74,-8.76 L 74.5,-7.5025 L 75,-6.25 L 75.5,-5.0025 L 76,-3.76 L 76.5,-2.5225 L 77,-1.29 L 77.5,-0.0625 L 78,1.16 L 78.5,2.3775 L 79,3.59 L 79.5,4.7975 L 80,6 L 80.5,7.1975 L 81,8.39 L 81.5,9.5775 L 82,10.76 L 82.5,11.9375 L 83,13.11 L 83.5,14.2775 L 84,15.44 L 84.5,16.5975 L 85,17.75 L 85.5,18.8975 L 86,20.04 L 86.5,21.1775 L 87,22.31 L 87.5,23.4375 L 88,24.56 L 88.5,25.6775 L 89,26.79 L 89.5,27.8975 L 90,29 L 90.5,30.0975 L 91,31.19 L 91.5,32.2775 L 92,33.36 L 92.5,34.4375 L 93,35.51 L 93.5,36.5775 L 94,37.64 L 94.5,38.6975 L 95,39.75 L 95.5,40.7975 L 96,41.84 L 96.5,42.8775 L 97,43.91 L 97.5,44.9375 L 98,45.96 L 98.5,46.9775 L 99,47.99 L 99.5,48.9975 L 100,50 L 100.5,50.9975 L 101,51.99 L 101.5,52.9775 L 102,53.96 L 102.5,54.9375 L 103,55.91 L 103.5,56.8775 L 104,57.84 L 104.5,58.7975 L 105,59.75 L 105.5,60.6975 L 106,61.64 L 106.5,62.5775 L 107,63.51 L 107.5,64.4375 L 108,65.36 L 108.5,66.2775 L 109,67.19 L 109.5,68.0975 L 110,69 L 110.5,69.8975 L 111,70.79 L 111.5,71.6775 L 112,72.56 L 112.5,73.4375 L 113,74.31 L 113.5,75.1775 L 114,76.04 L 114.5,76.8975 L 115,77.75 L 115.5,78.5975 L 116,79.44 L 116.5,80.2775 L 117,81.11 L 117.5,81.9375 L 118,82.76 L 118.5,83.5775 L 119,84.39 L 119.5,85.1975 L 120,86 L 120.5,86.7975 L 121,87.59 L 121.5,88.3775 L 122,89.16 L 122.5,89.9375 L 123,90.71 L 123.5,91.4775 L 124,92.24 L 124.5,92.9975 L 125,93.75 L 125.5,94.4975 L 126,95.24 L 126.5,95.9775 L 127,96.71 L 127.5,97.4375 L 128,98.16 L 128.5,98.8775 L 129,99.59 L 129.5,100.297 L 130,101 L 130.5,101.697 L 131,102.39 L 131.5,103.077 L 132,103.76 L 132.5,104.437 L 133,105.11 L 133.5,105.777 L 134,106.44 L 134.5,107.097 L 135,107.75 L 135.5,108.397 L 136,109.04 L 136.5,109.677 L 137,110.31 L 137.5,110.937 L 138,111.56 L 138.5,112.177 L 139,112.79 L 139.5,113.397 L 140,114 L 140.5,114.597 L 141,115.19 L 141.5,115.777 L 142,116.36 L 142.5,116.937 L 143,117.51 L 143.5,118.077 L 144,118.64 L 144.5,119.197 L 145,119.75 L 145.5,120.297 L 146,120.84 L 146.5,121.377 L 147,121.91 L 147.5,122.437 L 148,122.96 L 148.5,123.477 L 149,123.99 L 149.5,124.497 L 150,125 L 150.5,125.497 L 151,125.99 L 151.5,126.477 L 152,126.96 L 152.5,127.437 L 153,127.91 L 153.5,128.377 L 154,128.84 L 154.5,129.297 L 155,129.75 L 155.5,130.197 L 156,130.64 L 156.5,131.077 L 157,131.51 L 157.5,131.937 L 158,132.36 L 158.5,132.777 L 159,133.19 L 159.5,133.597 L 160,134 L 160.5,134.397 L 161,134.79 L 161.5,135.177 L 162,135.56 L 162.5,135.937 L 163,136.31 L 163.5,136.677 L 164,137.04 L 164.5,137.397 L 165,137.75 L 165.5,138.097 L 166,138.44 L 166.5,138.777 L 167,139.11 L 167.5,139.437 L 168,139.76 L 168.5,140.077 L 169,140.39 L 169.5,140.697 L 170,141 L 170.5,141.297 L 171,141.59 L 171.5,141.877 L 172,142.16 L 172.5,142.437 L 173,142.71 L 173.5,142.977 L 174,143.24 L 174.5,143.497 L 175,143.75 L 175.5,143.997 L 176,144.24 L 176.5,144.477 L 177,144.71 L 177.5,144.937 L 178,145.16 L 178.5,145.377 L 179,145.59 L 179.5,145.797 L 180,146 L 180.5,146.197 L 181,146.39 L 181.5,146.577 L 182,146.76 L 182.5,146.937 L 183,147.11 L 183.5,147.277 L 184,147.44 L 184.5,147.597 L 185,147.75 L 185.5,147.897 L 186,148.04 L 186.5,148.177 L 187,148.31 L 187.5,148.437 L 188,148.56 L 188.5,148.677 L 189,148.79 L 189.5,148.897 L 190,149 L 190.5,149.097 L 191,149.19 L 191.5,149.277 L 192,149.36 L 192.5,149.437 L 193,149.51 L 193.5,149.577 L 194,149.64 L 194.5,149.697 L 195,149.75 L 195.5,149.797 L 196,149.84 L 196.5,149.877 L 197,149.91 L 197.5,149.937 L 198,149.96 L 198.5,149.977 L 199,149.99 L 199.5,149.997 L 200,150 L 200.5,149.998 L 201,149.99 L 201.5,149.978 L 202,149.96 L 202.5,149.938 L 203,149.91 L 203.5,149.878 L 204,149.84 L 204.5,149.798 L 205,149.75 L 205.5,149.698 L 206,149.64 L 206.5,149.578 L 207,149.51 L 207.5,149.438 L 208,149.36 L 208.5,149.278 L 209,149.19 L 209.5,149.098 L 210,149 L 210.5,148.898 L 211,148.79 L 211.5,148.678 L 212,148.56 L 212.5,148.438 L 213,148.31 L 213.5,148.178 L 214,148.04 L 214.5,147.898 L 215,147.75 L 215.5,147.598 L 216,147.44 L 216.5,147.278 L 217,147.11 L 217.5,146.938 L 218,146.76 L 218.5,146.578 L 219,146.39 L 219.5,146.198 L 220,146 L 220.5,145.798 L 221,145.59 L 221.5,145.378 L 222,145.16 L 222.5,144.938 L 223,144.71 L 223.5,144.478 L 224,144.24 L 224.5,143.998 L 225,143.75 L 225.5,143.498 L 226,143.24 L 226.5,142.978 L 227,142.71 L 227.5,142.438 L 228,142.16 L 228.5,141.878 L 229,141.59 L 229.5,141.298 L 230,141 L 230.5,140.698 L 231,140.39 L 231.5,140.078 L 232,139.76 L 232.5,139.438 L 233,139.11 L 233.5,138.778 L 234,138.44 L 234.5,138.098 L 235,137.75 L 235.5,137.398 L 236,137.04 L 236.5,136.678 L 237,136.31 L 237.5,135.938 L 238,135.56 L 238.5,135.178 L 239,134.79 L 239.5,134.398 L 240,134 L 240.5,133.598 L 241,133.19 L 241.5,132.778 L 242,132.36 L 242.5,131.938 L 243,131.51 L 243.5,131.078 L 244,130.64 L 244.5,130.198 L 245,129.75 L 245.5,129.298 L 246,128.84 L 246.5,128.378 L 247,127.91 L 247.5,127.438 L 248,126.96 L 248.5,126.478 L 249,125.99 L 249.5,125.498 L 250,125 L 250.5,124.498 L 251,123.99 L 251.5,123.478 L 252,122.96 L 252.5,122.438 L 253,121.91 L 253.5,121.378 L 254,120.84 L 254.5,120.298 L 255,119.75 L 255.5,119.198 L 256,118.64 L 256.5,118.078 L 257,117.51 L 257.5,116.938 L 258,116.36 L 258.5,115.778 L 259,115.19 L 259.5,114.598 L 260,114 L 260.5,113.398 L 261,112.79 L 261.5,112.178 L 262,111.56 L 262.5,110.938 L 263,110.31 L 263.5,109.678 L 264,109.04 L 264.5,108.398 L 265,107.75 L 265.5,107.098 L 266,106.44 L 266.5,105.778 L 267,105.11 L 267.5,104.438 L 268,103.76 L 268.5,103.078 L 269,102.39 L 269.5,101.698 L 270,101 L 270.5,100.298 L 271,99.59 L 271.5,98.8775 L 272,98.16 L 272.5,97.4375 L 273,96.71 L 273.5,95.9775 L 274,95.24 L 274.5,94.4975 L 275,93.75 L 275.5,92.9975 L 276,92.24 L 276.5,91.4775 L 277,90.71 L 277.5,89.9375 L 278,89.16 L 278.5,88.3775 L 279,87.59 L 279.5,86.7975 L 280,86 L 280.5,85.1975 L 281,84.39 L 281.5,83.5775 L 282,82.76 L 282.5,81.9375 L 283,81.11 L 283.5,80.2775 L 284,79.44 L 284.5,78.5975 L 285,77.75 L 285.5,76.8975 L 286,76.04 L 286.5,75.1775 L 287,74.31 L 287.5,73.4375 L 288,72.56 L 288.5,71.6775 L 289,70.79 L 289.5,69.8975 L 290,69 L 290.5,68.0975 L 291,67.19 L 291.5,66.2775 L 292,65.36 L 292.5,64.4375 L 293,63.51 L 293.5,62.5775 L 294,61.64 L 294.5,60.6975 L 295,59.75 L 295.5,58.7975 L 296,57.84 L 296.5,56.8775 L 297,55.91 L 297.5,54.9375 L 298,53.96 L 298.5,52.9775 L 299,51.99 L 299.5,50.9975 L 300,50 L 300.5,48.9975 L 301,47.99 L 301.5,46.9775 L 302,45.96 L 302.5,44.9375 L 303,43.91 L 303.5,42.8775 L 304,41.84 L 304.5,40.7975 L 305,39.75 L 305.5,38.6975 L 306,37.64 L 306.5,36.5775 L 307,35.51 L 307.5,34.4375 L 308,33.36 L 308.5,32.2775 L 309,31.19 L 309.5,30.0975 L 310,29 L 310.5,27.8975 L 311,26.79 L 311.5,25.6775 L 312,24.56 L 312.5,23.4375 L 313,22.31 L 313.5,21.1775 L 314,20.04 L 314.5,18.8975 L 315,17.75 L 315.5,16.5975 L 316,15.44 L 316.5,14.2775 L 317,13.11 L 317.5,11.9375 L 318,10.76 L 318.5,9.5775 L 319,8.39 L 319.5,7.1975 L 320,6 L 320.5,4.7975 L 321,3.59 L 321.5,2.3775 L 322,1.16 L 322.5,-0.0625 L 323,-1.29 L 323.5,-2.5225 L 324,-3.76 L 324.5,-5.0025 L 325,-6.25 L 325.5,-7.5025 L 326,-8.76 L 326.5,-10.0225 L 327,-11.29 L 327.5,-12.5625 L 328,-13.84 L 328.5,-15.1225 L 329,-16.41 L 329.5,-17.7025 L 330,-19 L 330.5,-20.3025 L 331,-21.61 L 331.5,-22.9225 L 332,-24.24 L 332.5,-25.5625 L 333,-26.89 L 333.5,-28.2225 L 334,-29.56 L 334.5,-30.9025 L 335,-32.25 L 335.5,-33.6025 L 336,-34.96 L 336.5,-36.3225 L 337,-37.69 L 337.5,-39.0625 L 338,-40.44 L 338.5,-41.8225 L 339,-43.21 L 339.5,-44.6025 L 340,-46 L 340.5,-47.4025 L 341,-48.81 L 341.5,-50.2225 L 342,-51.64 L 342.5,-53.0625 L 343,-54.49 L 343.5,-55.9225 L 344,-57.36 L 344.5,-58.8025 L 345,-60.25 L 345.5,-61.7025 L 346,-63.16 L 346.5,-64.6225 L 347,-66.09 L 347.5,-67.5625 L 348,-69.04 L 348.5,-70.5225 L 349,-72.01 L 349.5,-73.5025 L 350,-75 L 350.5,-76.5025 L 351,-78.01 L 351.5,-79.5225 L 352,-81.04 L 352.5,-82.5625 L 353,-84.09 L 353.5,-85.6225 L 354,-87.16 L 354.5,-88.7025 L 355,-90.25 L 355.5,-91.8025 L 356,-93.36 L 356.5,-94.9225 L 357,-96.49 L 357.5,-98.0625 L 358,-99.64 L 358.5,-101.222 L 359,-102.81 L 359.5,-104.402 L 360,-106 L 360.5,-107.602 L 361,-109.21 L 361.5,-110.822 L 362,-112.44 L 362.5,-114.062 L 363,-115.69 L 363.5,-117.322 L 364,-118.96 L 364.5,-120.602 L 365,-122.25 L 365.5,-123.902 L 366,-125.56 L 366.5,-127.222 L 367,-128.89 L 367.5,-130.562 L 368,-132.24 L 368.5,-133.922 L 369,-135.61 L 369.5,-137.302 L 370,-139 L 370.5,-140.702 L 371,-142.41 L 371.5,-144.122 L 372,-145.84 L 372.5,-147.562 L 373,-149.29 L 373.5,-151.022 L 374,-152.76 L 374.5,-154.502 L 375,-156.25 L 375.5,-158.002 L 376,-159.76 L 376.5,-161.522 L 377,-163.29 L 377.5,-165.062 L 378,-166.84 L 378.5,-168.622 L 379,-170.41 L 379.5,-172.202 L 380,-174 L 380.5,-175.802 L 381,-177.61 L 381.5,-179.422 L 382,-181.24 L 382.5,-183.062 L 383,-184.89 L 383.5,-186.722 L 384,-188.56 L 384.5,-190.402 L 385,-192.25 L 385.5,-194.102 L 386,-195.96 L 386.5,-197.822 L 387,-199.69 L 387.5,-201.562 L 388,-203.44 L 388.5,-205.322 L 389,-207.21 L 389.5,-209.102 L 390,-211 L 390.5,-212.902 L 391,-214.81 L 391.5,-216.722 L 392,-218.64 L 392.5,-220.562 L 393,-222.49 L 393.5,-224.422 L 394,-226.36 L 394.5,-228.302 L 395,-230.25 L 395.5,-232.202 L 396,-234.16 L 396.5,-236.122 L 397,-238.09 L 397.5,-240.062 L 398,-242.04 L 398.5,-244.022 L 399,-246.01 L 399.5,-248.002 L 400,-250" style="stroke-width: 3px" stroke-width="3" stroke-dasharray="0"/><ellipse cx="200" cy="125" rx="4" ry="4" fill="#e07d10" stroke="#e07d10" style="stroke-width: 2px;stroke-opacity: 1;fill-opacity: 1" stroke-width="2" stroke-dasharray="0" stroke-opacity="1" fill-opacity="1"/><ellipse cx="125" cy="93.75" rx="4" ry="4" fill="#1fab54" stroke="#1fab54" style="stroke-width: 2px;stroke-opacity: 1;fill-opacity: 1" stroke-width="2" stroke-dasharray="0" stroke-opacity="1" fill-opacity="1"/><ellipse cx="225" cy="143.75" rx="4" ry="4" fill="#1fab54" stroke="#1fab54" style="stroke-width: 2px;stroke-opacity: 1;fill-opacity: 1" stroke-width="2" stroke-dasharray="0" stroke-opacity="1" fill-opacity="1"/><ellipse cx="300" cy="50" rx="4" ry="4" fill="#1fab54" stroke="#1fab54" style="stroke-width: 2px;stroke-opacity: 1;fill-opacity: 1" stroke-width="2" stroke-dasharray="0" stroke-opacity="1" fill-opacity="1"/><path fill="#ca337c" stroke="#ca337c" d="M -350,175 L 900,175" style="stroke-width: 2px;stroke-opacity: 1;fill-opacity: 0" stroke-width="2" stroke-opacity="1" stroke-dasharray="0" fill-opacity="0" clip-path="url(#clip-1)" transform="rotate(180 274.5 175)"/><path fill="#ca337c" stroke="#ca337c" d="M -0.5,180.6 C -0.15,178.5 3.7,175.35 4.75,175 C 3.7,174.65 -0.15,171.5 -0.5,169.4" transform="rotate(180 4.7500000000000036 174.99999999999994)" style="stroke-width: 2px;stroke-opacity: 1;fill-opacity: 0;stroke-linejoin: round;stroke-linecap: round" stroke-width="2" stroke-opacity="1" stroke-dasharray="-2" fill-opacity="0" stroke-linejoin="round" stroke-linecap="round"/><path fill="#ca337c" stroke="#ca337c" d="M 391.5,180.6 C 391.85,178.5 395.7,175.35 396.75,175 C 395.7,174.65 391.85,171.5 391.5,169.4" transform="rotate(360 396.75 175)" style="stroke-width: 2px;stroke-opacity: 1;fill-opacity: 0;stroke-linejoin: round;stroke-linecap: round" stroke-width="2" stroke-opacity="1" stroke-dasharray="-2" fill-opacity="0" stroke-linejoin="round" stroke-linecap="round"/></svg>